<svg width="23" height="22" viewBox="0 0 23 22" fill="none" xmlns="http://www.w3.org/2000/svg">
<path d="M11.5001 0C7.85511 0 4.90015 3.69381 4.90015 8.25C4.90015 12.8062 7.85511 16.5 11.5001 16.5C15.1452 16.5 18.1001 12.8062 18.1001 8.25C18.1001 3.69381 15.1452 0 11.5001 0ZM11.5001 15.4C8.46745 15.4 6.00015 12.1924 6.00015 8.25C6.00015 4.30762 8.46745 1.1 11.5001 1.1C14.5328 1.1 17.0001 4.30762 17.0001 8.25C17.0001 12.1924 14.5328 15.4 11.5001 15.4Z" fill="white"/>
<path d="M16.3044 15.5446C16.0093 15.8317 15.695 16.0898 15.3668 16.3222C16.4148 16.8092 17.334 17.214 18.119 17.5568C21.0322 18.8281 21.4 19.0796 21.4 19.8001C21.4 20.2984 20.9093 20.9001 20.3 20.9001H2.7C2.09062 20.9001 1.6 20.2984 1.6 19.8001C1.6 19.0796 1.96777 18.8281 4.88058 17.5568C5.66596 17.214 6.58519 16.8092 7.63277 16.3222C7.30462 16.0898 6.99039 15.8316 6.69519 15.5446C2.11554 17.6404 0.5 17.9213 0.5 19.8001C0.5 20.9001 1.48489 22.0001 2.7 22.0001H20.3C21.5151 22.0001 22.5 20.9001 22.5 19.8001C22.5 17.9213 20.8845 17.6404 16.3044 15.5446Z" fill="white"/>
</svg>
