<?xml version="1.0" standalone="no"?>
<!DOCTYPE svg PUBLIC "-//W3C//DTD SVG 20010904//EN"
 "http://www.w3.org/TR/2001/REC-SVG-20010904/DTD/svg10.dtd">
<svg version="1.0" xmlns="http://www.w3.org/2000/svg"
 width="1216.000000pt" height="1216.000000pt" viewBox="0 0 1216.000000 1216.000000"
 preserveAspectRatio="xMidYMid meet">
<metadata>
Created by potrace 1.14, written by Peter Selinger 2001-2017
</metadata>
<g transform="translate(0.000000,1216.000000) scale(0.100000,-0.100000)"
fill="#000000" stroke="none">
<path d="M5809 12115 c-2 -1 -47 -6 -99 -10 -52 -3 -108 -8 -125 -9 -16 -2
-57 -7 -90 -10 -33 -4 -73 -9 -90 -11 -154 -18 -134 -15 -260 -35 -927 -142
-1900 -561 -2675 -1153 -248 -190 -382 -309 -635 -562 -210 -211 -256 -262
-451 -500 -173 -213 -396 -548 -564 -850 -34 -61 -190 -372 -190 -379 0 -2
-15 -37 -34 -78 -128 -277 -263 -677 -344 -1018 -38 -159 -57 -251 -78 -375
-3 -16 -7 -37 -9 -45 -2 -8 -7 -35 -10 -60 -6 -52 -16 -117 -21 -143 -2 -10
-8 -64 -15 -120 -6 -56 -13 -113 -15 -127 -24 -172 -24 -947 0 -1090 2 -14 7
-54 11 -90 12 -114 24 -207 29 -236 2 -12 7 -45 11 -75 4 -30 8 -56 10 -57 5
-6 31 83 76 258 110 428 316 1072 439 1375 22 54 28 69 75 195 72 192 81 220
103 295 18 61 47 171 57 215 2 8 13 49 25 90 12 41 26 91 31 110 39 138 165
477 234 630 99 220 244 496 335 640 171 268 187 303 195 418 3 52 8 112 10
135 2 23 6 83 10 132 12 180 34 312 66 395 39 104 138 211 234 256 154 71 518
205 934 343 321 107 331 111 646 269 176 88 342 170 369 182 107 48 361 140
576 209 146 46 521 132 688 157 20 3 47 7 59 9 255 42 380 49 798 49 395 0
549 -9 735 -39 14 -3 43 -7 65 -10 22 -3 51 -8 65 -10 14 -3 41 -7 60 -10 19
-3 42 -8 50 -10 8 -2 30 -7 48 -10 42 -7 145 -30 252 -55 47 -11 95 -23 106
-25 23 -5 84 -23 259 -77 236 -72 478 -171 745 -305 194 -97 224 -113 410
-223 171 -100 176 -102 190 -85 25 31 139 85 593 283 26 12 47 25 47 29 -1 11
-83 73 -209 160 -58 40 -111 76 -117 80 -13 10 -26 18 -179 111 -408 248 -863
456 -1275 582 -74 23 -162 50 -195 60 -135 42 -487 121 -645 145 -91 13 -178
26 -205 29 -53 7 -139 18 -165 21 -14 2 -68 7 -120 10 -52 4 -106 9 -120 12
-28 5 -706 14 -711 8z"/>
<path d="M5067 10885 c-1 -2 -40 -6 -87 -9 -47 -4 -125 -11 -175 -17 -49 -5
-115 -12 -145 -15 -30 -3 -66 -7 -80 -9 -14 -2 -49 -7 -79 -10 -30 -4 -62 -8
-71 -10 -9 -2 -41 -6 -71 -10 -30 -4 -110 -17 -179 -30 -520 -98 -1135 -279
-1780 -525 -74 -29 -153 -59 -175 -67 -97 -36 -186 -84 -221 -119 -63 -63
-107 -170 -129 -314 -4 -25 -9 -53 -10 -62 -2 -9 -6 -49 -10 -90 -3 -40 -8
-89 -10 -108 -2 -19 -7 -80 -10 -135 -3 -55 -8 -116 -10 -135 -2 -19 -7 -64
-11 -100 -11 -117 -32 -206 -68 -293 -34 -82 -57 -132 -196 -422 -210 -438
-258 -540 -327 -690 -30 -66 -63 -138 -73 -160 -66 -144 -125 -278 -175 -395
-31 -74 -74 -177 -96 -227 -21 -51 -39 -99 -39 -106 0 -7 -4 -17 -8 -22 -5 -6
-37 -86 -71 -180 -35 -93 -67 -179 -72 -190 -9 -24 -63 -177 -112 -325 -87
-260 -188 -603 -247 -845 -23 -93 -45 -186 -50 -205 -12 -47 -88 -387 -94
-425 -3 -16 -10 -55 -16 -85 -9 -45 -36 -220 -55 -350 -2 -14 -6 -43 -9 -65
-4 -22 -9 -60 -11 -85 -3 -25 -7 -61 -10 -80 -2 -19 -7 -62 -10 -95 -3 -33 -7
-69 -9 -80 -2 -11 -7 -58 -11 -105 -4 -47 -8 -98 -10 -115 -2 -16 -7 -70 -10
-120 -3 -49 -8 -99 -10 -110 -17 -85 -27 -726 -12 -843 28 -227 235 -431 547
-540 77 -27 234 -67 299 -77 14 -3 69 -11 121 -19 87 -13 119 -17 260 -31 196
-20 436 -29 760 -29 239 0 537 9 586 18 10 2 51 7 89 10 39 4 81 9 95 11 39 7
81 14 135 21 28 3 59 8 70 10 11 3 56 11 100 20 44 8 152 31 240 51 88 19 167
36 175 38 211 44 417 129 580 237 233 156 499 441 600 643 65 130 89 264 55
312 -8 11 -49 37 -92 57 -146 70 -161 98 -168 316 -4 143 -11 182 -40 240 -37
73 -156 141 -235 135 -63 -5 -168 -16 -189 -20 -11 -2 -46 -7 -78 -10 -32 -4
-74 -9 -93 -11 -122 -14 -255 -19 -565 -18 -468 0 -698 13 -902 50 -36 7 -63
22 -64 37 -1 7 -2 25 -4 41 -11 130 109 474 294 846 103 206 277 523 314 571
17 22 44 27 242 44 162 14 260 30 480 79 251 57 315 77 445 142 218 108 384
268 551 529 116 180 186 311 235 444 80 212 91 284 53 350 -25 45 -46 58 -109
69 -62 11 -301 3 -360 -13 -8 -2 -40 -7 -70 -10 -30 -3 -66 -7 -80 -9 -40 -7
-189 -29 -285 -41 -68 -9 -404 -13 -458 -5 -32 5 -79 19 -105 32 l-47 23 2 68
c2 82 52 290 94 395 16 43 51 115 76 162 50 92 203 352 213 360 3 3 19 27 35
55 16 27 51 82 79 121 178 250 292 319 776 468 167 51 358 104 474 131 229 53
385 121 561 247 25 17 116 97 173 152 248 237 422 557 467 856 43 285 -93 595
-305 698 -69 34 -193 65 -300 77 -36 4 -73 9 -83 11 -10 2 -55 6 -100 9 -83 6
-103 8 -262 21 -93 7 -223 12 -228 9z"/>
<path d="M10138 10865 c-2 -2 -29 -5 -61 -9 -81 -8 -167 -29 -272 -66 -87 -31
-116 -43 -235 -97 -30 -14 -111 -50 -180 -80 -69 -31 -146 -70 -173 -87 -76
-51 -456 -433 -682 -687 -27 -31 -66 -74 -85 -96 -126 -140 -356 -415 -430
-513 -14 -18 -29 -38 -35 -44 -5 -6 -23 -29 -39 -51 -17 -22 -33 -42 -36 -45
-4 -3 -75 -97 -158 -210 -84 -113 -156 -210 -161 -216 -4 -5 -51 -73 -104
-150 -53 -76 -100 -143 -104 -149 -37 -47 -381 -579 -438 -677 -5 -9 -26 -43
-45 -75 -19 -32 -39 -67 -45 -78 -6 -11 -23 -38 -37 -60 -27 -43 -260 -450
-272 -475 -4 -8 -12 -24 -19 -35 -11 -18 -63 -114 -167 -310 -176 -330 -670
-1318 -670 -1341 0 -2 -22 -52 -50 -110 -27 -58 -50 -107 -50 -109 0 -2 -15
-36 -34 -77 -47 -102 -225 -520 -280 -658 -26 -63 -51 -124 -56 -135 -13 -27
-123 -324 -150 -405 -38 -115 -91 -283 -106 -335 -27 -99 -83 -321 -89 -355
-3 -19 -8 -42 -10 -50 -9 -32 -34 -184 -43 -265 -9 -81 -9 -298 1 -360 17
-106 40 -155 131 -282 206 -287 346 -357 706 -357 106 0 257 11 271 20 3 2 19
6 35 8 94 17 267 86 317 126 7 5 39 30 72 56 208 160 474 493 712 892 94 158
123 196 162 216 26 14 125 37 171 41 22 2 78 10 149 21 159 24 215 52 479 241
247 177 334 230 492 306 206 99 216 100 206 31 -3 -21 -8 -79 -12 -129 -3 -49
-7 -106 -9 -125 -2 -19 -6 -78 -10 -130 -3 -52 -8 -115 -10 -140 -3 -25 -7
-76 -10 -115 -7 -88 -28 -212 -63 -369 -22 -102 -26 -146 -26 -281 -1 -188 9
-219 90 -297 149 -143 333 -227 599 -273 49 -8 195 -18 280 -18 293 -1 514 70
690 219 137 117 125 96 162 272 18 86 35 171 38 187 3 17 13 59 21 95 9 36 17
72 19 80 2 8 12 51 23 95 18 70 27 110 47 215 8 40 44 251 50 295 4 22 8 47
10 55 2 8 7 35 10 60 3 25 15 104 26 175 11 72 22 141 24 155 2 14 6 39 9 55
2 17 8 50 11 75 4 24 8 47 10 50 2 3 6 21 9 40 8 49 15 87 26 145 5 28 12 62
15 78 8 43 15 77 30 152 8 39 17 86 20 105 3 19 12 67 20 105 8 39 16 81 19
95 2 14 25 133 50 265 62 318 83 431 91 485 4 25 9 54 11 65 8 36 43 239 49
280 4 22 8 47 10 55 2 8 7 38 11 65 3 28 8 59 10 70 3 17 18 103 40 240 3 17
7 46 10 65 2 19 9 60 14 90 5 30 12 72 15 93 10 73 43 298 50 337 2 14 14 90
25 170 11 80 23 156 25 170 8 45 24 154 30 200 3 25 8 56 10 70 3 14 7 40 10
58 3 17 7 44 9 60 3 15 8 47 11 72 3 25 8 52 10 60 2 8 7 38 10 66 3 28 8 61
10 75 3 13 14 83 25 154 12 72 22 137 25 145 2 8 6 38 10 65 3 28 11 77 17
110 6 33 12 69 14 80 11 76 41 257 49 295 3 14 8 41 11 60 5 31 47 282 59 350
3 14 11 57 18 97 20 107 14 152 -34 260 -62 138 -164 256 -311 360 -43 30 -80
59 -84 64 -3 5 9 40 27 77 53 110 67 170 65 274 -7 253 -170 431 -512 557 -73
26 -248 74 -319 86 -60 10 -271 25 -277 20z m-908 -3352 c-6 -44 -13 -90 -15
-104 -3 -13 -7 -44 -11 -69 -3 -25 -9 -70 -14 -100 -5 -30 -12 -75 -15 -100
-6 -43 -8 -60 -19 -125 -3 -16 -8 -50 -11 -75 -3 -25 -8 -52 -10 -60 -2 -8 -6
-37 -10 -65 -5 -43 -14 -103 -39 -265 -3 -19 -8 -46 -10 -60 -3 -14 -7 -43
-10 -65 -4 -37 -20 -138 -32 -210 -3 -16 -7 -43 -10 -60 -10 -59 -13 -82 -39
-260 -14 -99 -28 -191 -30 -205 -2 -14 -6 -43 -9 -65 -3 -22 -15 -105 -26
-185 -12 -80 -23 -165 -26 -190 -2 -25 -7 -56 -9 -70 -3 -14 -8 -47 -11 -75
-3 -27 -7 -61 -9 -74 -2 -13 -7 -43 -11 -66 -3 -23 -9 -47 -13 -53 -4 -8 -108
-13 -331 -17 -179 -3 -362 -7 -407 -8 -45 -1 -85 2 -89 6 -7 6 47 150 116 312
10 22 28 65 40 95 12 30 28 69 35 85 7 17 23 55 35 85 12 30 28 69 35 85 104
241 221 540 406 1034 93 250 160 413 192 470 96 170 353 548 364 537 2 -2 -1
-40 -7 -83z"/>
<path d="M11589 8618 c-2 -9 -85 -514 -115 -703 -8 -55 -17 -109 -18 -120 -2
-11 -12 -72 -21 -135 -10 -63 -26 -160 -36 -215 -21 -123 -19 -234 9 -380 11
-60 23 -129 26 -152 3 -22 7 -52 10 -65 5 -22 10 -66 22 -183 3 -27 7 -66 10
-85 26 -211 26 -777 -1 -1020 -2 -25 -7 -71 -10 -102 -3 -31 -7 -65 -9 -75 -2
-10 -7 -43 -11 -73 -4 -30 -9 -64 -11 -75 -1 -11 -6 -40 -9 -65 -12 -77 -63
-309 -100 -450 -19 -74 -37 -143 -40 -152 -19 -79 -164 -480 -210 -583 -8 -16
-37 -82 -65 -145 -57 -126 -162 -332 -246 -480 -65 -116 -77 -148 -99 -275 -9
-55 -37 -183 -62 -284 -25 -101 -46 -191 -48 -201 -2 -10 -13 -62 -25 -116
-12 -55 -24 -110 -26 -124 -2 -14 -12 -60 -21 -103 l-16 -77 -87 -84 c-234
-222 -425 -290 -828 -295 l-164 -2 -111 -77 c-177 -123 -370 -248 -475 -309
-135 -78 -425 -221 -562 -277 -63 -27 -123 -52 -132 -57 -10 -5 -57 -22 -105
-39 -48 -16 -97 -34 -108 -40 -74 -35 -528 -159 -710 -194 -68 -13 -196 -36
-229 -41 -21 -3 -48 -7 -60 -10 -12 -2 -45 -7 -74 -10 -28 -3 -67 -7 -85 -10
-156 -21 -317 -29 -607 -29 -242 1 -446 8 -510 18 -14 2 -54 7 -90 10 -36 3
-76 8 -90 10 -14 3 -43 7 -65 10 -102 13 -269 42 -355 61 -14 4 -36 8 -50 11
-205 41 -570 153 -820 251 -266 105 -633 289 -860 431 -97 61 -371 245 -375
252 -3 4 -24 4 -47 0 -24 -5 -68 -11 -98 -15 -30 -3 -66 -8 -80 -10 -27 -4
-176 -15 -280 -20 -36 -2 -152 -4 -258 -5 l-192 -1 17 -23 c42 -53 340 -304
548 -461 121 -92 394 -276 475 -321 19 -10 37 -22 38 -26 2 -5 7 -8 11 -8 5 0
48 -23 97 -51 91 -53 340 -179 429 -219 28 -12 73 -32 100 -45 289 -133 833
-317 1060 -359 11 -2 63 -13 115 -24 100 -22 120 -26 185 -37 22 -3 60 -10 85
-15 45 -9 61 -12 197 -31 39 -5 80 -12 91 -14 23 -4 142 -15 237 -21 72 -4
895 -4 975 0 50 3 186 17 211 21 9 2 40 6 70 10 30 3 77 10 104 15 28 5 70 12
95 15 25 3 52 8 60 10 8 2 31 7 50 10 19 3 42 8 50 10 8 2 31 6 50 9 215 32
677 165 973 280 1083 421 2017 1131 2702 2056 398 538 759 1257 920 1835 10
33 21 71 25 85 15 43 59 212 75 290 9 41 18 82 20 90 8 35 46 227 50 250 2 14
8 52 14 85 14 83 19 111 26 175 3 30 8 62 10 70 2 8 7 49 11 90 3 41 8 91 10
110 5 54 5 926 0 1005 -7 96 -16 185 -21 215 -2 14 -7 45 -10 70 -17 132 -90
533 -109 595 -1 6 -7 28 -11 50 -5 22 -10 42 -10 45 -33 131 -98 346 -141 472
-97 281 -245 628 -255 596z"/>
</g>
</svg>
