<svg width="21" height="20" viewBox="0 0 21 20" fill="none" xmlns="http://www.w3.org/2000/svg">
<path d="M20.2479 18.5675L14.5096 12.8251C15.6409 11.4684 16.3213 9.73459 16.3213 7.84095C16.3213 3.52083 12.7758 0.00817871 8.41475 0.00817871C4.05364 0.00817871 0.5 3.52493 0.5 7.84505C0.5 12.1652 4.04545 15.6778 8.40655 15.6778C10.2592 15.6778 11.9643 15.0425 13.3169 13.9809L19.0757 19.7397C19.4118 20.0758 19.9118 20.0758 20.2479 19.7397C20.584 19.4036 20.584 18.9036 20.2479 18.5675ZM2.1805 7.84505C2.1805 4.45126 4.97587 1.69278 8.40655 1.69278C11.8372 1.69278 14.6326 4.45126 14.6326 7.84505C14.6326 11.2388 11.8372 13.9973 8.40655 13.9973C4.97587 13.9973 2.1805 11.2347 2.1805 7.84505Z" fill="#999999"/>
</svg>
