<svg width="2080" height="394" viewBox="0 0 2080 394" fill="none" xmlns="http://www.w3.org/2000/svg">
<g clip-path="url(#clip0_32572_2)">
<path d="M177.08 235H28.6C24.5467 235 21.56 234.147 19.64 232.44C17.9333 230.52 17.08 227.533 17.08 223.48V16.12C17.08 12.0667 17.9333 9.18666 19.64 7.47999C21.56 5.55999 24.5467 4.59999 28.6 4.59999H177.08C181.133 4.59999 184.013 5.55999 185.72 7.47999C187.64 9.18666 188.6 12.0667 188.6 16.12V53.56C188.6 57.6133 187.64 60.6 185.72 62.52C184.013 64.2267 181.133 65.08 177.08 65.08H88.76V89.72H151.16C155.213 89.72 158.093 90.68 159.8 92.6C161.72 94.3067 162.68 97.1867 162.68 101.24V135.48C162.68 139.533 161.72 142.52 159.8 144.44C158.093 146.147 155.213 147 151.16 147H88.76V174.52H177.08C181.133 174.52 184.013 175.48 185.72 177.4C187.64 179.107 188.6 181.987 188.6 186.04V223.48C188.6 227.533 187.64 230.52 185.72 232.44C184.013 234.147 181.133 235 177.08 235ZM159.8 203H55.16V120.12H133.88V116.92H55.16V36.6H159.8V33.4H51.96V206.2H159.8V203ZM335.255 235H283.415C279.362 235 276.375 234.147 274.455 232.44C272.748 230.52 271.895 227.533 271.895 223.48V66.36H224.855C220.802 66.36 217.815 65.5067 215.895 63.8C214.188 61.88 213.335 58.8933 213.335 54.84V16.12C213.335 12.0667 214.188 9.18666 215.895 7.47999C217.815 5.55999 220.802 4.59999 224.855 4.59999H393.815C397.868 4.59999 400.748 5.55999 402.455 7.47999C404.375 9.18666 405.335 12.0667 405.335 16.12V54.84C405.335 58.8933 404.375 61.88 402.455 63.8C400.748 65.5067 397.868 66.36 393.815 66.36H346.775V223.48C346.775 227.533 345.815 230.52 343.895 232.44C342.188 234.147 339.308 235 335.255 235ZM307.735 206.2H310.935V36.6H376.535V33.4H242.135V36.6H307.735V206.2ZM630.093 174.52C630.093 184.333 628.599 193.293 625.613 201.4C622.839 209.293 617.719 216.12 610.253 221.88C602.999 227.427 592.866 231.8 579.853 235C567.053 238.2 550.733 239.8 530.893 239.8C511.053 239.8 494.626 238.2 481.613 235C468.599 231.8 458.359 227.427 450.893 221.88C443.639 216.12 438.519 209.293 435.533 201.4C432.759 193.293 431.373 184.333 431.373 174.52V65.4C431.373 55.5867 432.759 46.7333 435.533 38.84C438.519 30.7333 443.639 23.8 450.893 18.04C458.359 12.28 468.599 7.79999 481.613 4.59999C494.626 1.39999 511.053 -0.200005 530.893 -0.200005C550.733 -0.200005 567.053 1.39999 579.853 4.59999C592.866 7.79999 602.999 12.28 610.253 18.04C617.719 23.8 622.839 30.7333 625.613 38.84C628.599 46.7333 630.093 55.5867 630.093 65.4V174.52ZM595.213 167.16V72.76C595.213 59.96 590.626 49.6133 581.453 41.72C572.279 33.6133 555.213 29.56 530.253 29.56C505.293 29.56 488.333 33.6133 479.373 41.72C470.413 49.6133 465.933 59.96 465.933 72.76V167.16C465.933 179.96 470.413 190.413 479.373 198.52C488.333 206.413 505.293 210.36 530.253 210.36C555.213 210.36 572.279 206.413 581.453 198.52C590.626 190.413 595.213 179.96 595.213 167.16ZM469.133 167.16V72.76C469.133 60.8133 473.399 51.2133 481.933 43.96C490.466 36.4933 506.573 32.76 530.253 32.76C553.933 32.76 570.146 36.4933 578.893 43.96C587.639 51.2133 592.013 60.8133 592.013 72.76V167.16C592.013 179.107 587.639 188.813 578.893 196.28C570.146 203.533 553.933 207.16 530.253 207.16C506.573 207.16 490.466 203.533 481.933 196.28C473.399 188.813 469.133 179.107 469.133 167.16ZM504.013 163C504.013 167.267 505.613 170.893 508.813 173.88C512.013 176.653 519.373 178.04 530.893 178.04C542.413 178.04 549.773 176.653 552.973 173.88C556.173 170.893 557.773 167.267 557.773 163V76.92C557.773 72.8667 556.173 69.4533 552.973 66.68C549.773 63.6933 542.413 62.2 530.893 62.2C519.373 62.2 512.013 63.6933 508.813 66.68C505.613 69.4533 504.013 72.8667 504.013 76.92V163ZM2015.92 147.64L1929.2 159.48C1925.15 159.907 1922.16 159.373 1920.24 157.88C1918.53 156.387 1917.36 153.613 1916.72 149.56L1910 107.32C1909.36 103.267 1909.89 100.173 1911.6 98.04C1913.52 95.9067 1916.51 94.6267 1920.56 94.2L1984.24 85.24C1987.44 84.8133 1989.68 83.8533 1990.96 82.36C1992.24 80.8667 1992.88 78.52 1992.88 75.32C1992.88 72.3333 1992.13 70.0933 1990.64 68.6C1989.15 67.1067 1987.01 66.36 1984.24 66.36H1895.92C1891.87 66.36 1888.88 65.5067 1886.96 63.8C1885.25 61.88 1884.4 58.8933 1884.4 54.84V16.12C1884.4 12.0667 1885.25 9.18666 1886.96 7.47999C1888.88 5.55999 1891.87 4.59999 1895.92 4.59999H1999.28C2019.97 4.59999 2036.19 9.50666 2047.92 19.32C2059.65 28.92 2065.52 42.7867 2065.52 60.92V94.52C2065.52 112.44 2061.04 125.24 2052.08 132.92C2043.12 140.6 2031.07 145.507 2015.92 147.64ZM1942 126.2L2011.12 116.6C2016.03 115.96 2020.29 114.573 2023.92 112.44C2027.55 110.307 2029.36 105.933 2029.36 99.32V63.16C2029.36 51.64 2026.16 43.96 2019.76 40.12C2013.36 36.0667 2006.53 34.04 1999.28 34.04H1913.2V37.24H1999.28C2005.89 37.24 2011.97 38.9467 2017.52 42.36C2023.28 45.7733 2026.16 52.7067 2026.16 63.16V99.32C2026.16 104.867 2024.56 108.493 2021.36 110.2C2018.16 111.693 2014.53 112.76 2010.48 113.4L1941.36 122.68L1942 126.2ZM1980.08 235H1921.52C1917.47 235 1914.48 234.147 1912.56 232.44C1910.85 230.52 1910 227.533 1910 223.48V181.56C1910 177.507 1910.85 174.627 1912.56 172.92C1914.48 171 1917.47 170.04 1921.52 170.04H1980.08C1984.13 170.04 1987.01 171 1988.72 172.92C1990.64 174.627 1991.6 177.507 1991.6 181.56V223.48C1991.6 227.533 1990.64 230.52 1988.72 232.44C1987.01 234.147 1984.13 235 1980.08 235ZM1949.36 209.4H1952.56V195.64H1949.36V209.4Z" fill="#FF862F"/>
<path d="M775.025 138.04C775.025 132.28 775.452 126.947 776.305 122.04C777.372 117.133 778.652 112.547 780.145 108.28L800.625 55.8C802.758 50.4667 805.105 45.9867 807.665 42.36C810.225 38.52 814.705 36.6 821.105 36.6H852.465C858.438 36.6 862.705 38.52 865.265 42.36C867.825 45.9867 870.278 50.5733 872.625 56.12L894.705 108.28C896.198 112.547 897.372 117.133 898.225 122.04C899.292 126.947 899.825 132.28 899.825 138.04V147.96H775.025V138.04ZM826.225 71.8L811.185 120.44H861.425L846.385 71.8C845.532 69.88 844.572 68.4933 843.505 67.64C842.652 66.7867 841.585 66.36 840.305 66.36H832.305C831.025 66.36 829.852 66.7867 828.785 67.64C827.932 68.4933 827.078 69.88 826.225 71.8ZM899.825 206.2H903.025V138.04C903.025 132.067 902.492 126.627 901.425 121.72C900.572 116.6 899.292 111.693 897.585 107L875.505 54.84C872.945 48.6533 870.172 43.5333 867.185 39.48C864.412 35.4267 859.505 33.4 852.465 33.4H821.105C813.852 33.4 808.732 35.4267 805.745 39.48C802.758 43.5333 800.092 48.5467 797.745 54.52L777.265 107C775.558 111.693 774.172 116.6 773.105 121.72C772.252 126.627 771.825 132.067 771.825 138.04V206.2H775.025V151.16H899.825V206.2ZM807.985 223.48C807.985 227.533 807.025 230.52 805.105 232.44C803.398 234.147 800.518 235 796.465 235H749.425C745.372 235 742.385 234.147 740.465 232.44C738.758 230.52 737.905 227.533 737.905 223.48V139C737.905 132.6 738.865 125.24 740.785 116.92C742.918 108.6 746.118 98.8933 750.385 87.8L778.225 15.16C779.505 11.5333 781.425 8.86665 783.985 7.16C786.758 5.45333 790.278 4.59999 794.545 4.59999H880.625C884.678 4.59999 887.985 5.45333 890.545 7.16C893.318 8.86665 895.345 11.5333 896.625 15.16L924.465 87.8C928.732 98.8933 931.825 108.6 933.745 116.92C935.878 125.24 936.945 132.6 936.945 139V223.48C936.945 227.533 935.985 230.52 934.065 232.44C932.358 234.147 929.478 235 925.425 235H877.105C872.838 235 869.638 234.147 867.505 232.44C865.585 230.52 864.625 227.533 864.625 223.48V178.68H807.985V223.48ZM1018.7 35.96C1017.63 34.8933 1016.78 34.1467 1016.14 33.72C1015.5 33.2933 1014.75 33.08 1013.9 33.08C1013.04 33.08 1012.19 33.4 1011.34 34.04C1010.48 34.68 1010.06 35.64 1010.06 36.92V206.2H1013.26V37.56C1013.26 37.3467 1013.26 37.1333 1013.26 36.92C1013.47 36.7067 1013.68 36.6 1013.9 36.6C1014.11 36.6 1014.32 36.7067 1014.54 36.92C1014.96 37.1333 1015.28 37.3467 1015.5 37.56L1136.46 173.24V206.2H1139.66V33.4H1136.46V168.44L1018.7 35.96ZM1035.98 235H987.975C983.922 235 980.935 234.147 979.015 232.44C977.308 230.52 976.455 227.533 976.455 223.48V16.12C976.455 12.0667 977.308 9.18666 979.015 7.47999C980.935 5.55999 983.922 4.59999 987.975 4.59999H1021.26C1025.31 4.59999 1028.72 5.23999 1031.5 6.51999C1034.48 7.79999 1037.36 10.04 1040.14 13.24L1102.22 84.28V16.12C1102.22 12.0667 1103.07 9.18666 1104.78 7.47999C1106.7 5.55999 1109.68 4.59999 1113.74 4.59999H1161.74C1165.79 4.59999 1168.67 5.55999 1170.38 7.47999C1172.3 9.18666 1173.26 12.0667 1173.26 16.12V223.48C1173.26 227.533 1172.3 230.52 1170.38 232.44C1168.67 234.147 1165.79 235 1161.74 235H1113.74C1109.68 235 1106.7 234.147 1104.78 232.44C1103.07 230.52 1102.22 227.533 1102.22 223.48V184.12L1047.5 117.88V223.48C1047.5 227.533 1046.54 230.52 1044.62 232.44C1042.91 234.147 1040.03 235 1035.98 235ZM1223.79 235C1219.74 235 1216.75 234.147 1214.83 232.44C1213.13 230.52 1212.27 227.533 1212.27 223.48V185.4C1212.27 181.347 1213.13 178.467 1214.83 176.76C1216.75 174.84 1219.74 173.88 1223.79 173.88H1255.47V66.36H1223.79C1219.74 66.36 1216.75 65.5067 1214.83 63.8C1213.13 61.88 1212.27 58.8933 1212.27 54.84V16.12C1212.27 12.0667 1213.13 9.18666 1214.83 7.47999C1216.75 5.55999 1219.74 4.59999 1223.79 4.59999H1360.11C1364.17 4.59999 1367.05 5.55999 1368.75 7.47999C1370.67 9.18666 1371.63 12.0667 1371.63 16.12V54.84C1371.63 58.8933 1370.67 61.88 1368.75 63.8C1367.05 65.5067 1364.17 66.36 1360.11 66.36H1329.07V173.88H1360.11C1364.17 173.88 1367.05 174.84 1368.75 176.76C1370.67 178.467 1371.63 181.347 1371.63 185.4V223.48C1371.63 227.533 1370.67 230.52 1368.75 232.44C1367.05 234.147 1364.17 235 1360.11 235H1223.79ZM1342.83 206.2V203H1293.87V36.6H1342.83V33.4H1241.07V36.6H1290.67V203H1241.07V206.2H1342.83ZM1523.78 111.8C1519.94 111.8 1517.17 110.947 1515.46 109.24C1513.76 107.533 1511.09 103.907 1507.46 98.36L1468.42 38.84C1467.14 36.7067 1465.65 35.32 1463.94 34.68C1462.24 33.8266 1460.53 33.4 1458.82 33.4H1453.38C1450.61 33.4 1448.48 34.2533 1446.98 35.96C1445.7 37.4533 1445.06 39.9067 1445.06 43.32V206.2H1448.26V43.32C1448.26 41.6133 1448.58 40.12 1449.22 38.84C1449.86 37.3467 1451.25 36.6 1453.38 36.6H1458.18C1459.68 36.6 1460.96 36.8133 1462.02 37.24C1463.3 37.6667 1464.58 38.9467 1465.86 41.08L1504.9 99.96C1508.74 105.72 1511.62 109.667 1513.54 111.8C1515.68 113.933 1519.09 115 1523.78 115C1528.48 115 1531.78 113.933 1533.7 111.8C1535.84 109.667 1538.82 105.72 1542.66 99.96L1581.7 41.08C1582.98 38.9467 1584.16 37.6667 1585.22 37.24C1586.29 36.8133 1587.57 36.6 1589.06 36.6H1593.86C1596 36.6 1597.38 37.3467 1598.02 38.84C1598.88 40.12 1599.3 41.6133 1599.3 43.32V206.2H1602.5V43.32C1602.5 39.9067 1601.76 37.4533 1600.26 35.96C1598.98 34.2533 1596.85 33.4 1593.86 33.4H1588.42C1586.72 33.4 1585.01 33.8266 1583.3 34.68C1581.81 35.32 1580.42 36.7067 1579.14 38.84L1540.1 98.36C1536.48 103.907 1533.81 107.533 1532.1 109.24C1530.4 110.947 1527.62 111.8 1523.78 111.8ZM1470.34 235H1422.66C1418.61 235 1415.62 234.147 1413.7 232.44C1412 230.52 1411.14 227.533 1411.14 223.48V16.12C1411.14 12.0667 1412 9.18666 1413.7 7.47999C1415.62 5.55999 1418.61 4.59999 1422.66 4.59999H1474.18C1477.6 4.59999 1480.37 5.34665 1482.5 6.83998C1484.85 8.33332 1486.98 10.7867 1488.9 14.2L1517.7 66.36C1518.77 68.28 1519.62 69.6667 1520.26 70.52C1521.12 71.3733 1522.18 71.8 1523.46 71.8H1526.34C1527.62 71.8 1528.58 71.3733 1529.22 70.52C1530.08 69.6667 1531.04 68.28 1532.1 66.36L1560.58 14.2C1562.5 10.7867 1564.53 8.33332 1566.66 6.83998C1569.01 5.34665 1571.89 4.59999 1575.3 4.59999H1627.14C1631.2 4.59999 1634.08 5.55999 1635.78 7.47999C1637.7 9.18666 1638.66 12.0667 1638.66 16.12V223.48C1638.66 227.533 1637.7 230.52 1635.78 232.44C1634.08 234.147 1631.2 235 1627.14 235H1577.86C1573.81 235 1570.82 234.147 1568.9 232.44C1567.2 230.52 1566.34 227.533 1566.34 223.48V110.84L1547.46 145.72C1545.54 149.347 1543.2 152.013 1540.42 153.72C1537.86 155.213 1534.56 155.96 1530.5 155.96H1517.7C1513.65 155.96 1510.24 155.213 1507.46 153.72C1504.9 152.013 1502.66 149.347 1500.74 145.72L1481.86 110.84V223.48C1481.86 227.533 1480.9 230.52 1478.98 232.44C1477.28 234.147 1474.4 235 1470.34 235ZM1842.71 235H1694.23C1690.17 235 1687.19 234.147 1685.27 232.44C1683.56 230.52 1682.71 227.533 1682.71 223.48V16.12C1682.71 12.0667 1683.56 9.18666 1685.27 7.47999C1687.19 5.55999 1690.17 4.59999 1694.23 4.59999H1842.71C1846.76 4.59999 1849.64 5.55999 1851.35 7.47999C1853.27 9.18666 1854.23 12.0667 1854.23 16.12V53.56C1854.23 57.6133 1853.27 60.6 1851.35 62.52C1849.64 64.2267 1846.76 65.08 1842.71 65.08H1754.39V89.72H1816.79C1820.84 89.72 1823.72 90.68 1825.43 92.6C1827.35 94.3067 1828.31 97.1867 1828.31 101.24V135.48C1828.31 139.533 1827.35 142.52 1825.43 144.44C1823.72 146.147 1820.84 147 1816.79 147H1754.39V174.52H1842.71C1846.76 174.52 1849.64 175.48 1851.35 177.4C1853.27 179.107 1854.23 181.987 1854.23 186.04V223.48C1854.23 227.533 1853.27 230.52 1851.35 232.44C1849.64 234.147 1846.76 235 1842.71 235ZM1825.43 203H1720.79V120.12H1799.51V116.92H1720.79V36.6H1825.43V33.4H1717.59V206.2H1825.43V203Z" fill="#FFBD59"/>
<path d="M71.6286 388.12C60.7086 388.12 50.6726 385.468 41.5206 380.164C32.3686 374.756 25.0886 367.372 19.6806 358.012C14.3766 348.548 11.7246 337.94 11.7246 326.188C11.7246 314.852 14.4806 304.504 19.9926 295.144C25.6086 285.784 33.0446 278.4 42.3006 272.992C51.6606 267.584 61.5926 264.88 72.0966 264.88C79.3766 264.88 85.1486 265.556 89.4126 266.908C93.6766 268.156 98.6166 270.392 104.233 273.616V279.388C98.9286 275.748 93.9886 273.2 89.4126 271.744C84.9406 270.184 79.3246 269.404 72.5646 269.404C62.2686 269.404 52.8566 272.056 44.3286 277.36C35.9046 282.56 29.1966 289.58 24.2046 298.42C19.3166 307.156 16.8726 316.568 16.8726 326.656C16.8726 336.848 19.3686 346.312 24.3606 355.048C29.3526 363.784 35.9566 370.752 44.1726 375.952C52.4926 381.048 61.4366 383.596 71.0046 383.596C77.8686 383.596 83.8486 382.816 88.9446 381.256C94.0406 379.592 99.1366 377.044 104.233 373.612V379.384C99.2406 382.4 94.0926 384.584 88.7886 385.936C83.5886 387.392 77.8686 388.12 71.6286 388.12ZM247.368 268V385H242.22V275.488L186.996 387.184L132.084 274.084V385H126.936V268H134.268L186.996 376.576L240.192 268H247.368ZM328.826 388.12C317.906 388.12 307.766 385.26 298.406 379.54C289.046 373.82 281.61 366.228 276.098 356.764C270.69 347.196 267.986 336.952 267.986 326.032C267.986 315.216 270.742 305.128 276.254 295.768C281.766 286.304 289.202 278.816 298.562 273.304C307.922 267.688 318.062 264.88 328.982 264.88C340.006 264.88 350.146 267.636 359.402 273.148C368.658 278.66 375.99 286.148 381.398 295.612C386.91 304.972 389.666 315.112 389.666 326.032C389.666 337.264 386.91 347.664 381.398 357.232C375.99 366.696 368.606 374.236 359.246 379.852C349.99 385.364 339.85 388.12 328.826 388.12ZM328.826 383.596C338.81 383.596 348.066 381.048 356.594 375.952C365.122 370.752 371.882 363.784 376.874 355.048C381.97 346.208 384.518 336.64 384.518 326.344C384.518 316.152 382.022 306.688 377.03 297.952C372.038 289.216 365.278 282.3 356.75 277.204C348.222 272.004 338.966 269.404 328.982 269.404C318.894 269.404 309.586 272.004 301.058 277.204C292.53 282.3 285.718 289.216 280.622 297.952C275.63 306.688 273.134 316.152 273.134 326.344C273.134 336.64 275.63 346.208 280.622 355.048C285.718 363.784 292.53 370.752 301.058 375.952C309.586 381.048 318.842 383.596 328.826 383.596ZM417.297 272.524H390.309V268H449.121V272.524H422.445V385H417.297V272.524ZM465.557 268H470.705C482.977 268 492.545 271.276 499.409 277.828C506.273 284.276 509.705 292.96 509.705 303.88C509.705 311.472 508.041 318.232 504.713 324.16C501.385 329.984 496.861 334.508 491.141 337.732C485.421 340.852 479.025 342.412 471.953 342.412H470.705V385H465.557V268ZM472.265 337.888C481.729 337.888 489.477 334.976 495.509 329.152C501.541 323.224 504.557 314.904 504.557 304.192C504.557 294 501.697 286.2 495.977 280.792C490.361 275.28 482.353 272.524 471.953 272.524H470.705V337.888H472.265ZM528.564 268H570.528V272.524H533.712V336.172H564.444V340.696H533.712V380.476H570.528V385H528.564V268ZM605.852 272.524H578.864V268H637.676V272.524H611V385H605.852V272.524ZM653.643 268H658.791V313.708C666.071 313.708 672.467 315.268 677.979 318.388C683.595 321.404 687.911 325.616 690.927 331.024C693.943 336.328 695.451 342.412 695.451 349.276C695.451 356.556 693.839 362.9 690.615 368.308C687.495 373.716 683.179 377.876 677.667 380.788C672.155 383.596 665.863 385 658.791 385H653.643V268ZM658.791 380.476C664.927 380.476 670.387 379.176 675.171 376.576C679.955 373.976 683.647 370.336 686.247 365.656C688.951 360.872 690.303 355.412 690.303 349.276C690.303 343.14 689.003 337.732 686.403 333.052C683.803 328.372 680.111 324.732 675.327 322.132C670.543 319.532 665.031 318.232 658.791 318.232V380.476ZM862.822 385H857.362L835.21 340.384H773.122L751.438 385H745.978L804.322 265.192L862.822 385ZM833.338 335.86L804.01 276.424L775.306 335.86H833.338ZM881.213 268H886.361V335.86H966.545V268H971.693V385H966.545V340.384H886.361V385H881.213V268ZM996.761 268H1001.91V377.044L1083.18 268H1088.33V385H1083.18V275.644L1001.6 385H996.761V268ZM1233.37 268V385H1228.22V275.488L1173 387.184L1118.08 274.084V385H1112.94V268H1120.27L1173 376.576L1226.19 268H1233.37ZM1258.98 268H1300.94V272.524H1264.13V336.172H1294.86V340.696H1264.13V380.476H1300.94V385H1258.98V268ZM1409.45 388.12C1398.53 388.12 1388.39 385.26 1379.03 379.54C1369.67 373.82 1362.24 366.228 1356.72 356.764C1351.32 347.196 1348.61 336.952 1348.61 326.032C1348.61 315.216 1351.37 305.128 1356.88 295.768C1362.39 286.304 1369.83 278.816 1379.19 273.304C1388.55 267.688 1398.69 264.88 1409.61 264.88C1420.63 264.88 1430.77 267.636 1440.03 273.148C1449.28 278.66 1456.62 286.148 1462.02 295.612C1467.54 304.972 1470.29 315.112 1470.29 326.032C1470.29 337.264 1467.54 347.664 1462.02 357.232C1456.62 366.696 1449.23 374.236 1439.87 379.852C1430.62 385.364 1420.48 388.12 1409.45 388.12ZM1409.45 383.596C1419.44 383.596 1428.69 381.048 1437.22 375.952C1445.75 370.752 1452.51 363.784 1457.5 355.048C1462.6 346.208 1465.14 336.64 1465.14 326.344C1465.14 316.152 1462.65 306.688 1457.66 297.952C1452.66 289.216 1445.9 282.3 1437.38 277.204C1428.85 272.004 1419.59 269.404 1409.61 269.404C1399.52 269.404 1390.21 272.004 1381.68 277.204C1373.16 282.3 1366.34 289.216 1361.25 297.952C1356.26 306.688 1353.76 316.152 1353.76 326.344C1353.76 336.64 1356.26 346.208 1361.25 355.048C1366.34 363.784 1373.16 370.752 1381.68 375.952C1390.21 381.048 1399.47 383.596 1409.45 383.596ZM1492.47 268H1497.62V335.86H1577.81V268H1582.95V385H1577.81V340.384H1497.62V385H1492.47V268ZM1702.4 385L1652.79 277.672L1603.97 385H1597.88L1652.95 265.348L1708.02 385H1702.4ZM1832.35 385H1826.89L1804.74 340.384H1742.65L1720.97 385H1715.51L1773.85 265.192L1832.35 385ZM1802.87 335.86L1773.54 276.424L1744.83 335.86H1802.87ZM1850.12 268H1855.26V377.044L1936.54 268H1941.69V385H1936.54V275.644L1854.95 385H1850.12V268ZM1896.45 257.548C1889.48 257.548 1884.02 255.988 1880.07 252.868C1876.22 249.748 1874.14 245.276 1873.83 239.452H1878.2C1878.61 244.028 1880.38 247.512 1883.5 249.904C1886.62 252.296 1890.88 253.492 1896.29 253.492C1900.97 253.492 1905.03 252.14 1908.46 249.436C1912 246.732 1913.97 243.404 1914.39 239.452H1918.91C1918.7 244.548 1916.42 248.864 1912.05 252.4C1907.68 255.832 1902.48 257.548 1896.45 257.548ZM1966.76 268H1971.91V335.86H2052.09V268H2057.24V385H2052.09V340.384H1971.91V385H1966.76V268Z" fill="black"/>
</g>
<defs>
<clipPath id="clip0_32572_2">
<rect width="2080" height="394" fill="white"/>
</clipPath>
</defs>
</svg>
