<?xml version="1.0" encoding="utf-8"?><svg viewBox="0 0 23 22" xmlns="http://www.w3.org/2000/svg" xmlns:xlink="http://www.w3.org/1999/xlink"><style>:root>svg{display:none}:root>svg:target{display:block}</style><svg viewBox="0 0 23 22" id="login" xmlns="http://www.w3.org/2000/svg"><path d="M11.5 0C7.855 0 4.9 3.694 4.9 8.25s2.955 8.25 6.6 8.25c3.645 0 6.6-3.694 6.6-8.25S15.145 0 11.5 0zm0 15.4C8.467 15.4 6 12.192 6 8.25S8.467 1.1 11.5 1.1 17 4.308 17 8.25s-2.467 7.15-5.5 7.15z"/><path d="M16.304 15.545a7.802 7.802 0 01-.937.777c1.048.487 1.967.892 2.752 1.235C21.032 18.828 21.4 19.08 21.4 19.8c0 .498-.49 1.1-1.1 1.1H2.7c-.61 0-1.1-.602-1.1-1.1 0-.72.368-.972 3.28-2.243.786-.343 1.705-.748 2.753-1.235a7.854 7.854 0 01-.938-.777C2.115 17.64.5 17.92.5 19.8c0 1.1.985 2.2 2.2 2.2h17.6c1.215 0 2.2-1.1 2.2-2.2 0-1.879-1.616-2.16-6.196-4.255z"/></svg><svg viewBox="0 0 21 20" id="loop" xmlns="http://www.w3.org/2000/svg"><path d="M20.248 18.567l-5.738-5.742a7.752 7.752 0 001.811-4.984c0-4.32-3.545-7.833-7.906-7.833S.5 3.525.5 7.845s3.545 7.833 7.907 7.833a7.928 7.928 0 004.91-1.697l5.759 5.759a.807.807 0 001.172 0 .807.807 0 000-1.172zM2.18 7.845c0-3.394 2.796-6.152 6.227-6.152 3.43 0 6.226 2.758 6.226 6.152s-2.796 6.152-6.226 6.152c-3.431 0-6.226-2.762-6.226-6.152z"/></svg></svg>